<?xml version="1.0" encoding="UTF-8" standalone="no"?>
<!DOCTYPE svg PUBLIC "-//W3C//DTD SVG 1.1//EN" "http://www.w3.org/Graphics/SVG/1.1/DTD/svg11.dtd">
<svg width="100%" height="100%" viewBox="0 0 1024 1024" version="1.1" xmlns="http://www.w3.org/2000/svg" xmlns:xlink="http://www.w3.org/1999/xlink" xml:space="preserve" xmlns:serif="http://www.serif.com/" style="fill-rule:evenodd;clip-rule:evenodd;stroke-linejoin:round;stroke-miterlimit:2;">
    <g id="Rounded" transform="matrix(2.85606,0,0,2.71767,-193.132,-191.369)">
        <path d="M425.808,164.615C425.808,112.625 385.645,70.416 336.174,70.416L156.906,70.416C107.436,70.416 67.272,112.625 67.272,164.615L67.272,353.011C67.272,405.001 107.436,447.21 156.906,447.21L336.174,447.21C385.645,447.21 425.808,405.001 425.808,353.011L425.808,164.615Z" style="fill:url(#_Linear1);"/>
    </g>
    <g id="Logo" transform="matrix(2.06081,0,0,2.54691,-282.151,-640.633)">
        <path d="M273.499,532.687C264.868,532.687 258.207,530.866 253.517,527.222C248.826,523.578 246.481,519.935 246.481,516.291C246.481,513.255 247.7,510.826 250.139,509.004C252.579,507.182 255.205,506.271 258.02,506.271C259.521,506.271 260.834,506.499 261.96,506.954C267.401,509.232 273.171,511.661 279.269,514.242C285.367,516.822 292.637,518.113 301.081,518.113C305.396,518.113 309.899,517.657 314.59,516.747C324.159,511.129 333.118,504.411 341.468,496.593C349.817,488.774 357.088,480.766 363.279,472.567C369.471,464.369 374.162,457.082 377.352,450.706C383.168,438.864 386.076,428.161 386.076,418.596C386.076,409.639 383.778,402.162 379.181,396.165C374.584,390.168 368.439,385.652 360.746,382.615C353.054,379.579 344.517,378.061 335.135,378.061C323.69,378.061 312.995,379.351 303.051,381.932C301.925,382.539 300.799,383.185 299.673,383.868C298.548,384.551 297.516,385.348 296.577,386.259C294.326,388.536 293.388,390.586 293.763,392.408C295.827,392.559 297.469,393.319 298.688,394.685C299.908,396.051 300.518,397.569 300.518,399.239C300.518,401.213 300.142,402.807 299.392,404.022C298.641,405.236 297.985,406.299 297.422,407.21C296.484,408.424 296.015,409.943 296.015,411.764C296.015,412.523 296.202,413.245 296.577,413.928C296.953,414.611 297.703,415.104 298.829,415.408C298.454,416.015 297.609,416.319 296.296,416.319C294.232,416.319 292.262,415.484 290.386,413.814C288.509,412.144 287.008,410.17 285.883,407.893C284.757,405.616 284.194,403.566 284.194,401.744C284.194,399.164 285.038,397 286.727,395.254C288.416,393.508 290.198,392.559 292.074,392.408L292.074,391.497C292.074,389.523 292.825,387.549 294.326,385.576C294.514,385.272 294.983,384.817 295.733,384.209C285.414,387.549 276.407,392.066 268.715,397.759C261.022,403.452 254.643,409.563 249.577,416.091C247.888,418.368 246.293,420.684 244.792,423.037C243.291,425.39 242.071,427.781 241.133,430.21C240.758,431.121 240.477,432.108 240.289,433.171C240.101,434.233 240.007,435.296 240.007,436.359C240.007,438.636 240.477,440.8 241.415,442.849C242.353,444.899 243.854,446.531 245.918,447.745C248.169,446.379 250.796,445.696 253.798,445.696C255.674,445.696 257.269,445.923 258.583,446.379C261.21,447.138 263.227,448.049 264.634,449.112C266.041,450.174 267.214,451.237 268.152,452.3C269.09,453.059 270.356,453.78 271.951,454.463C273.546,455.146 275.094,455.488 276.595,455.488C278.659,455.488 280.16,454.881 281.098,453.666C281.661,454.122 281.942,454.653 281.942,455.26C281.942,455.716 281.661,456.399 281.098,457.31C279.785,459.435 277.111,461.067 273.077,462.206C269.043,463.345 265.056,463.914 261.116,463.914C255.299,463.914 250.702,462.472 247.325,459.587C243.948,456.703 242.634,453.894 243.385,451.161C243.76,450.25 244.135,449.643 244.511,449.339C242.822,448.428 241.415,447.176 240.289,445.582C239.163,443.988 238.225,442.356 237.475,440.686C237.099,442.659 236.771,444.633 236.489,446.607C236.208,448.58 236.067,450.478 236.067,452.3C236.067,459.435 237.568,465.432 240.57,470.29C243.948,475.604 248.826,479.475 255.205,481.904C261.585,484.333 268.246,485.548 275.188,485.548C286.633,485.548 297.047,483.119 306.428,478.261C308.492,477.046 310.603,475.148 312.76,472.567C314.918,469.987 315.716,467.254 315.153,464.369C314.027,464.825 312.714,465.053 311.213,465.053C309.149,465.053 307.085,464.483 305.021,463.345C302.957,462.206 301.456,460.802 300.518,459.132C299.204,457.006 298.501,455.07 298.407,453.325C298.313,451.579 298.266,450.098 298.266,448.884C298.266,447.062 297.516,445.088 296.015,442.963C294.514,440.838 292.45,440.078 289.823,440.686C290.386,439.319 291.418,438.37 292.919,437.839C294.42,437.308 295.921,437.042 297.422,437.042C298.735,437.042 299.955,437.156 301.081,437.384C302.206,437.611 303.144,437.877 303.895,438.181C307.085,439.092 309.946,440.572 312.479,442.621C315.012,444.671 316.935,446.683 318.249,448.656C319.937,451.085 320.782,453.514 320.782,455.943C320.782,459.132 319.562,461.561 317.123,463.231C317.498,463.838 317.686,464.445 317.686,465.053L317.686,467.102C317.686,468.924 317.123,470.898 315.997,473.023C315.247,474.389 314.402,475.604 313.464,476.667C314.027,476.515 314.59,476.439 315.153,476.439L316.56,476.439C319.374,476.742 321.298,477.502 322.329,478.716C323.361,479.931 323.877,481.145 323.877,482.36C323.877,483.119 323.69,483.954 323.315,484.865C323.127,485.472 322.564,485.776 321.626,485.776C320.5,485.776 319.843,485.168 319.656,483.954C319.468,482.891 318.624,482.17 317.123,481.79C315.622,481.411 313.933,481.221 312.057,481.221C311.306,481.221 310.509,481.259 309.665,481.335C308.82,481.411 307.929,481.525 306.991,481.677C306.803,481.828 306.663,481.904 306.569,481.904L306.147,481.904C296.765,486.762 285.976,489.192 273.781,489.192C265.713,489.192 258.02,487.787 250.702,484.979C243.385,482.17 237.756,477.653 233.816,471.429L233.816,472.795C233.816,474.617 233.44,476.135 232.69,477.35C230.814,480.993 227.999,482.815 224.247,482.815C221.62,482.815 219.556,481.752 218.055,479.627C217.304,478.564 217.117,477.729 217.492,477.122C217.867,476.515 218.43,476.515 219.181,477.122C219.744,477.577 220.4,477.805 221.151,477.805C223.59,477.805 225.935,476.515 228.187,473.934C229.125,473.023 229.922,471.732 230.579,470.063C231.236,468.393 231.377,466.798 231.001,465.28C229.313,460.878 228.468,456.171 228.468,451.161C228.468,445.392 229.594,439.433 231.846,433.285C234.097,427.136 237.568,421.101 242.259,415.18C244.886,411.688 247.935,408.348 251.406,405.16C254.877,401.972 258.677,398.936 262.804,396.051C262.054,396.203 261.21,396.279 260.271,396.279L257.457,396.279C253.141,395.975 249.483,394.609 246.481,392.18C245.73,392.484 244.604,392.635 243.103,392.635C240.852,392.635 238.46,391.952 235.927,390.586C233.394,389.219 231.377,387.246 229.876,384.665C229.125,383.45 228.515,381.932 228.046,380.11C227.577,378.289 227.343,376.467 227.343,374.645C227.343,371.912 227.859,369.331 228.891,366.902C229.922,364.473 231.377,362.727 233.253,361.664C234.566,360.905 235.645,360.564 236.489,360.64C237.334,360.716 237.85,360.829 238.037,360.981C236.724,361.892 236.067,363.031 236.067,364.397C236.067,365.764 236.677,367.13 237.897,368.496C239.116,369.863 240.383,370.925 241.696,371.684C243.197,372.444 244.745,373.316 246.34,374.303C247.935,375.29 249.389,376.846 250.702,378.972C251.828,380.49 252.391,382.312 252.391,384.437C252.391,387.474 251.171,389.751 248.732,391.269C250.796,392.939 254.08,393.774 258.583,393.774C260.271,393.774 262.007,393.622 263.789,393.319C265.572,393.015 267.214,392.635 268.715,392.18C275.282,388.233 282.646,384.779 290.808,381.818C298.97,378.858 307.741,376.619 317.123,375.1C314.871,374.341 312.948,373.241 311.353,371.798C309.758,370.356 308.961,368.724 308.961,366.902C308.961,364.929 309.711,363.6 311.213,362.917C312.714,362.234 314.027,361.892 315.153,361.892L315.434,361.892L315.153,361.892C314.402,362.044 314.027,362.879 314.027,364.397C314.027,365.915 314.684,367.813 315.997,370.09C317.31,372.368 319.187,373.81 321.626,374.417L321.907,374.645C328.099,373.734 334.666,373.279 341.608,373.279C353.241,373.279 363.936,374.835 373.693,377.947C383.449,381.059 391.236,385.766 397.053,392.066C402.869,398.366 405.777,406.451 405.777,416.319C405.777,420.57 405.121,425.2 403.807,430.21C402.494,435.22 400.43,440.61 397.615,446.379C394.613,452.452 389.782,459.397 383.121,467.216C376.46,475.035 368.674,482.891 359.761,490.786C350.849,498.68 341.327,505.892 331.195,512.42C339.451,509.383 348.644,505.095 358.776,499.553C368.908,494.012 380.26,486.762 392.831,477.805C404.651,469.455 415.44,460.422 425.197,450.706C434.954,440.989 443.725,431.615 451.512,422.581C459.298,413.548 466.287,405.768 472.479,399.239C484.3,386.79 495.042,377.226 504.704,370.546C514.367,363.866 523.092,359.235 530.879,356.654C538.665,354.074 545.561,352.783 551.565,352.783C554.754,352.783 557.569,353.011 560.008,353.466C564.323,354.074 567.794,355.592 570.421,358.021C573.048,360.45 574.361,363.259 574.361,366.447C574.361,368.572 573.705,370.698 572.391,372.823L568.451,371.457C569.577,369.635 570.14,367.889 570.14,366.219C570.14,363.334 568.78,360.981 566.059,359.159C563.338,357.338 559.82,356.427 555.505,356.427C550.064,356.427 543.45,358.173 535.663,361.664C527.877,365.156 518.87,370.887 508.645,378.858C498.419,386.828 486.833,397.569 473.886,411.081C464.693,420.798 453.81,431.615 441.239,443.532C428.668,455.45 413.47,467.785 395.645,480.538C379.134,492.228 364.499,500.995 351.74,506.84C338.982,512.685 327.911,516.898 318.53,519.479C310.837,523.427 303.191,526.615 295.592,529.044C287.993,531.473 280.629,532.687 273.499,532.687ZM272.936,529.499C278.565,529.499 284.1,528.778 289.541,527.336C294.983,525.894 300.424,523.958 305.865,521.529L304.458,521.529C303.707,521.681 302.957,521.757 302.206,521.757L299.673,521.757C294.42,521.757 289.682,521.301 285.46,520.39C281.239,519.479 277.908,518.796 275.469,518.341C273.781,518.037 272.233,517.809 270.825,517.657C269.418,517.506 268.152,517.43 267.026,517.43C261.96,517.43 259.427,518.72 259.427,521.301C259.427,523.123 260.787,524.945 263.508,526.767C266.229,528.588 269.371,529.499 272.936,529.499Z" style="fill:rgb(241,241,236);fill-rule:nonzero;"/>
    </g>
    <defs>
        <linearGradient id="_Linear1" x1="0" y1="0" x2="1" y2="0" gradientUnits="userSpaceOnUse" gradientTransform="matrix(-5.76571e-14,376.793,-358.537,-6.0593e-14,246.54,70.4164)"><stop offset="0" style="stop-color:rgb(48,48,48);stop-opacity:1"/><stop offset="1" style="stop-color:rgb(21,21,21);stop-opacity:1"/></linearGradient>
    </defs>
</svg>
