<?xml version="1.0" encoding="UTF-8" standalone="no"?>
<!DOCTYPE svg PUBLIC "-//W3C//DTD SVG 1.1//EN" "http://www.w3.org/Graphics/SVG/1.1/DTD/svg11.dtd">
<svg width="100%" height="100%" viewBox="0 0 1024 1024" version="1.1" xmlns="http://www.w3.org/2000/svg" xmlns:xlink="http://www.w3.org/1999/xlink" xml:space="preserve" xmlns:serif="http://www.serif.com/" style="fill-rule:evenodd;clip-rule:evenodd;stroke-linecap:round;stroke-linejoin:round;stroke-miterlimit:1.5;">
    <g id="Face-Light">
        <g id="Dark">
            <g transform="matrix(1.69316,0,0,1.69316,-231.823,-252.46)">
                <circle cx="439.311" cy="451.5" r="226.5" style="fill:rgb(249,103,126);fill-opacity:0.66;"/>
            </g>
            <path d="M510.969,129.531C498.803,135.942 497.162,156.588 491,168C485.539,178.114 478.5,188.5 474,198C469.891,206.674 468.833,217 464,225C459.167,233 441.414,237.268 445,246C448.833,255.333 474.5,270.06 487,281C498.296,290.886 509,303.475 520,311.642C530.107,319.145 541.488,324.909 553,330C567.833,336.56 592.667,344.453 609,351C623.173,356.681 635.957,366.664 651,369.283C668.5,372.33 695.333,370.83 714,369.283C730.567,367.91 746.632,362.905 763,360C780.167,356.953 801,354 817,351C831.073,348.361 860.833,355.833 859,342C857.167,328.167 822.167,288.667 806,268C792.321,250.514 776.5,231.333 762,218C749.135,206.17 733.932,197.082 719,188C702.833,178.167 682.5,166.833 665,159C648.545,151.635 630.833,145.912 614,141C597.585,136.21 580.995,131.423 564,129.531C546.828,127.619 523.136,123.119 510.969,129.531Z" style="fill:rgb(241,77,103);fill-opacity:0.66;"/>
            <path d="M128.5,512C148.917,509.833 219.128,469 251,450C275.677,435.289 298.068,416 319.735,398C341.016,380.32 363.456,362 381,342C398.072,322.538 411.167,298.667 425,278C438.269,258.177 452.333,237.667 464,218C475.184,199.146 487.172,174.745 495,160C500.377,149.872 522.029,132.561 510.969,129.531C498.803,126.197 448.662,133.922 422,140C397.427,145.602 373.884,155.438 351,166C327.167,177 299,191.333 279,206C260.753,219.381 245.333,238.5 231,254C217.671,268.414 203.854,282.64 193,299C181.5,316.333 170.5,337.833 162,358C153.566,378.011 147.583,402.5 142,420C137.434,434.312 130.681,448.136 128.5,463C126.25,478.333 112.258,513.724 128.5,512Z" style="fill:rgb(241,77,103);fill-opacity:0.66;"/>
        </g>
        <g transform="matrix(1.69316,0,0,1.69316,-231.823,-252.46)">
            <circle cx="439.311" cy="451.5" r="226.5" style="fill:none;stroke:rgb(31,31,31);stroke-width:17.72px;"/>
        </g>
        <path d="M850,345C671.919,382.772 630.05,394.89 443,254" style="fill:none;stroke:rgb(31,31,31);stroke-width:30px;"/>
        <path d="M128.5,512C299.99,444.51 400.643,350.524 510.969,129.531" style="fill:none;stroke:rgb(31,31,31);stroke-width:30px;"/>
        <g transform="matrix(1,0,0,1,208,-9)">
            <circle cx="408.5" cy="546.5" r="34.5" style="fill:rgb(31,31,31);stroke:rgb(31,31,31);stroke-width:20px;"/>
        </g>
        <g transform="matrix(1,0,0,1,-10,-9)">
            <circle cx="408.5" cy="546.5" r="34.5" style="fill:rgb(31,31,31);stroke:rgb(31,31,31);stroke-width:20px;"/>
        </g>
    </g>
    <g transform="matrix(1.57143,0,0,1.57143,-30.9286,-66.8063)">
        <circle cx="51.5" cy="98.5" r="17.5" style="fill:rgb(23,202,48);"/>
    </g>
    <g transform="matrix(1.56522,0,0,1.56522,-512.087,-25.4348)">
        <circle cx="434.5" cy="148.5" r="11.5" style="fill:rgb(202,189,23);"/>
    </g>
    <g transform="matrix(1.36886,-0.323373,0.323373,1.36886,-37.412,6.52511)">
        <path d="M212.413,59.413L226.587,73.587L210.174,90L226.587,106.413L212.413,120.587L196,104.174L179.587,120.587L165.413,106.413L181.826,90L165.413,73.587L179.587,59.413L196,75.826L212.413,59.413Z" style="fill:rgb(135,180,231);"/>
    </g>
    <g transform="matrix(1.11957,0,0,1.14882,36.5326,-161.983)">
        <path d="M535,930L544.255,951.857L561.315,948.187L557.343,963.949L581,972.5L557.343,981.051L561.315,996.813L544.255,993.143L535,1015L525.745,993.143L508.685,996.813L512.657,981.051L489,972.5L512.657,963.949L508.685,948.187L525.745,951.857L535,930Z" style="fill:rgb(202,189,23);"/>
    </g>
    <g transform="matrix(1.82609,0,0,1.82609,75.5652,642.826)">
        <circle cx="434.5" cy="148.5" r="11.5" style="fill:rgb(253,101,125);"/>
    </g>
</svg>
