<?xml version="1.0" encoding="UTF-8" standalone="no"?>
<!DOCTYPE svg PUBLIC "-//W3C//DTD SVG 1.1//EN" "http://www.w3.org/Graphics/SVG/1.1/DTD/svg11.dtd">
<svg width="100%" height="100%" viewBox="0 0 164 55" version="1.1" xmlns="http://www.w3.org/2000/svg" xmlns:xlink="http://www.w3.org/1999/xlink" xml:space="preserve" xmlns:serif="http://www.serif.com/" style="fill-rule:evenodd;clip-rule:evenodd;stroke-linejoin:round;stroke-miterlimit:2;">
    <g transform="matrix(0.331471,0,0,0.241667,-29.4255,-28.8727)">
        <path d="M117.686,276.383C113.245,276.383 109.818,274.794 107.404,271.617C104.991,268.439 103.784,265.261 103.784,262.083C103.784,259.434 104.412,257.316 105.667,255.727C106.922,254.138 108.273,253.343 109.721,253.343C110.494,253.343 111.169,253.542 111.749,253.939C114.548,255.926 117.517,258.044 120.654,260.295C123.792,262.546 127.533,263.672 131.877,263.672C134.098,263.672 136.414,263.274 138.828,262.48C143.751,257.581 148.361,251.721 152.657,244.902C156.953,238.083 160.694,231.098 163.88,223.948C167.066,216.797 169.479,210.441 171.12,204.88C174.113,194.552 175.609,185.217 175.609,176.874C175.609,169.062 174.427,162.541 172.062,157.31C169.696,152.08 166.535,148.141 162.577,145.492C158.619,142.844 154.226,141.52 149.399,141.52C143.51,141.52 138.007,142.646 132.891,144.897C132.312,145.426 131.732,145.989 131.153,146.585C130.574,147.181 130.043,147.876 129.56,148.67C128.402,150.657 127.919,152.444 128.112,154.033C129.174,154.166 130.019,154.828 130.646,156.019C131.274,157.211 131.588,158.535 131.588,159.992C131.588,161.713 131.394,163.103 131.008,164.163C130.622,165.222 130.284,166.149 129.995,166.943C129.512,168.003 129.271,169.327 129.271,170.916C129.271,171.578 129.367,172.207 129.56,172.803C129.753,173.399 130.139,173.829 130.719,174.094C130.526,174.623 130.091,174.888 129.415,174.888C128.353,174.888 127.34,174.16 126.374,172.703C125.409,171.247 124.637,169.526 124.057,167.539C123.478,165.553 123.189,163.766 123.189,162.177C123.189,159.926 123.623,158.039 124.492,156.516C125.361,154.993 126.278,154.166 127.243,154.033L127.243,153.239C127.243,151.517 127.629,149.796 128.402,148.074C128.498,147.81 128.74,147.412 129.126,146.883C123.816,149.796 119.182,153.735 115.224,158.701C111.266,163.666 107.984,168.996 105.377,174.69C104.508,176.676 103.688,178.695 102.915,180.748C102.143,182.8 101.516,184.886 101.033,187.004C100.84,187.799 100.695,188.659 100.598,189.586C100.502,190.513 100.454,191.44 100.454,192.367C100.454,194.353 100.695,196.24 101.178,198.028C101.66,199.815 102.433,201.239 103.495,202.298C104.653,201.106 106.005,200.51 107.549,200.51C108.515,200.51 109.335,200.709 110.011,201.106C111.363,201.768 112.4,202.563 113.124,203.49C113.848,204.417 114.452,205.343 114.934,206.27C115.417,206.932 116.069,207.561 116.889,208.157C117.71,208.753 118.506,209.051 119.279,209.051C120.341,209.051 121.113,208.521 121.596,207.462C121.885,207.859 122.03,208.323 122.03,208.852C122.03,209.25 121.885,209.846 121.596,210.64C120.92,212.494 119.544,213.917 117.469,214.91C115.393,215.903 113.342,216.4 111.314,216.4C108.322,216.4 105.956,215.142 104.219,212.626C102.481,210.11 101.805,207.661 102.191,205.277C102.384,204.483 102.577,203.953 102.771,203.688C101.902,202.894 101.178,201.801 100.598,200.411C100.019,199.021 99.536,197.597 99.15,196.141C98.957,197.862 98.788,199.583 98.643,201.305C98.499,203.026 98.426,204.681 98.426,206.27C98.426,212.494 99.199,217.724 100.743,221.961C102.481,226.596 104.991,229.972 108.273,232.091C111.556,234.21 114.983,235.269 118.555,235.269C124.444,235.269 129.802,233.15 134.628,228.913C135.69,227.854 136.776,226.199 137.887,223.948C138.997,221.697 139.407,219.313 139.118,216.797C138.538,217.194 137.863,217.393 137.09,217.393C136.028,217.393 134.966,216.897 133.904,215.903C132.843,214.91 132.07,213.686 131.588,212.229C130.912,210.375 130.55,208.687 130.501,207.164C130.453,205.641 130.429,204.35 130.429,203.291C130.429,201.702 130.043,199.981 129.271,198.127C128.498,196.273 127.436,195.611 126.085,196.141C126.374,194.949 126.905,194.121 127.678,193.658C128.45,193.194 129.222,192.963 129.995,192.963C130.67,192.963 131.298,193.062 131.877,193.261C132.456,193.459 132.939,193.691 133.325,193.956C134.966,194.75 136.439,196.041 137.742,197.829C139.045,199.617 140.035,201.371 140.71,203.092C141.579,205.211 142.014,207.33 142.014,209.448C142.014,212.229 141.386,214.348 140.131,215.804C140.324,216.334 140.421,216.863 140.421,217.393L140.421,219.181C140.421,220.77 140.131,222.491 139.552,224.345C139.166,225.537 138.731,226.596 138.249,227.523C138.538,227.39 138.828,227.324 139.118,227.324L139.842,227.324C141.29,227.589 142.279,228.251 142.81,229.31C143.341,230.37 143.607,231.429 143.607,232.488C143.607,233.15 143.51,233.879 143.317,234.673C143.22,235.203 142.931,235.468 142.448,235.468C141.869,235.468 141.531,234.938 141.435,233.879C141.338,232.952 140.904,232.323 140.131,231.992C139.359,231.661 138.49,231.495 137.525,231.495C137.139,231.495 136.728,231.528 136.294,231.594C135.859,231.661 135.401,231.76 134.918,231.892C134.822,232.025 134.749,232.091 134.701,232.091L134.484,232.091C129.657,236.328 124.106,238.447 117.831,238.447C113.679,238.447 109.721,237.222 105.956,234.772C102.191,232.323 99.295,228.383 97.268,222.954L97.268,224.146C97.268,225.735 97.075,227.059 96.689,228.119C95.723,231.297 94.275,232.886 92.344,232.886C90.993,232.886 89.931,231.959 89.158,230.105C88.772,229.178 88.676,228.45 88.869,227.92C89.062,227.39 89.352,227.39 89.738,227.92C90.027,228.317 90.365,228.516 90.751,228.516C92.006,228.516 93.213,227.39 94.372,225.139C94.854,224.345 95.265,223.219 95.602,221.763C95.94,220.306 96.013,218.916 95.82,217.592C94.951,213.752 94.516,209.647 94.516,205.277C94.516,200.246 95.096,195.048 96.254,189.686C97.413,184.323 99.199,179.059 101.612,173.895C102.964,170.85 104.532,167.937 106.318,165.156C108.104,162.375 110.059,159.727 112.183,157.211C111.797,157.343 111.363,157.41 110.88,157.41L109.432,157.41C107.211,157.145 105.329,155.953 103.784,153.834C103.398,154.099 102.819,154.232 102.046,154.232C100.888,154.232 99.657,153.636 98.354,152.444C97.051,151.252 96.013,149.531 95.24,147.28C94.854,146.221 94.541,144.897 94.299,143.308C94.058,141.719 93.937,140.13 93.937,138.541C93.937,136.157 94.203,133.906 94.734,131.788C95.265,129.669 96.013,128.146 96.978,127.219C97.654,126.557 98.209,126.259 98.643,126.326C99.078,126.392 99.343,126.491 99.44,126.623C98.764,127.418 98.426,128.411 98.426,129.603C98.426,130.794 98.74,131.986 99.368,133.178C99.995,134.37 100.647,135.297 101.322,135.959C102.095,136.621 102.891,137.382 103.712,138.243C104.532,139.103 105.281,140.461 105.956,142.314C106.536,143.639 106.825,145.228 106.825,147.081C106.825,149.73 106.198,151.716 104.943,153.04C106.005,154.497 107.694,155.225 110.011,155.225C110.88,155.225 111.773,155.092 112.69,154.828C113.607,154.563 114.452,154.232 115.224,153.834C118.603,150.392 122.392,147.379 126.592,144.797C130.791,142.215 135.304,140.262 140.131,138.938C138.973,138.276 137.983,137.316 137.163,136.058C136.342,134.8 135.932,133.377 135.932,131.788C135.932,130.066 136.318,128.908 137.09,128.312C137.863,127.716 138.538,127.418 139.118,127.418L139.262,127.418L139.118,127.418C138.731,127.55 138.538,128.279 138.538,129.603C138.538,130.927 138.876,132.582 139.552,134.568C140.228,136.554 141.193,137.812 142.448,138.342L142.593,138.541C145.779,137.746 149.158,137.349 152.73,137.349C158.715,137.349 164.218,138.706 169.238,141.421C174.258,144.135 178.264,148.24 181.257,153.735C184.25,159.23 185.746,166.281 185.746,174.888C185.746,178.596 185.408,182.634 184.732,187.004C184.057,191.374 182.995,196.074 181.547,201.106C180.002,206.403 177.516,212.461 174.089,219.28C170.662,226.099 166.655,232.952 162.07,239.837C157.484,246.723 152.585,253.012 147.372,258.706C151.619,256.058 156.35,252.317 161.563,247.484C166.776,242.651 172.617,236.328 179.085,228.516C185.167,221.233 190.718,213.354 195.738,204.88C200.758,196.406 205.271,188.229 209.278,180.35C213.284,172.472 216.88,165.686 220.066,159.992C226.148,149.134 231.675,140.792 236.646,134.966C241.618,129.139 246.107,125.101 250.114,122.85C254.12,120.599 257.668,119.473 260.757,119.473C262.398,119.473 263.846,119.672 265.101,120.069C267.322,120.599 269.108,121.923 270.459,124.041C271.811,126.16 272.487,128.61 272.487,131.39C272.487,133.244 272.149,135.098 271.473,136.952L269.446,135.76C270.025,134.171 270.315,132.648 270.315,131.192C270.315,128.676 269.615,126.623 268.215,125.034C266.815,123.446 265.005,122.651 262.784,122.651C259.985,122.651 256.582,124.174 252.575,127.219C248.569,130.265 243.935,135.263 238.674,142.215C233.412,149.167 227.451,158.535 220.79,170.32C216.059,178.794 210.46,188.229 203.992,198.623C197.524,209.018 189.704,219.777 180.533,230.899C172.037,241.095 164.507,248.742 157.943,253.84C151.378,258.938 145.682,262.612 140.855,264.863C136.897,268.306 132.963,271.087 129.053,273.206C125.144,275.324 121.354,276.383 117.686,276.383ZM117.396,273.603C120.292,273.603 123.14,272.974 125.94,271.716C128.74,270.458 131.539,268.77 134.339,266.651L133.615,266.651C133.229,266.783 132.843,266.85 132.456,266.85L131.153,266.85C128.45,266.85 126.012,266.452 123.84,265.658C121.668,264.863 119.955,264.268 118.7,263.87C117.831,263.606 117.034,263.407 116.31,263.274C115.586,263.142 114.934,263.076 114.355,263.076C111.749,263.076 110.445,264.201 110.445,266.452C110.445,268.041 111.145,269.63 112.545,271.219C113.945,272.808 115.562,273.603 117.396,273.603Z" style="fill:rgb(43,43,43);fill-rule:nonzero;"/>
        <path d="M204.571,268.041C202.061,268.041 199.696,267.214 197.476,265.559C195.255,263.903 193.614,261.222 192.552,257.514C191.876,255.131 191.538,252.417 191.538,249.371C191.538,245.663 192.069,242.022 193.131,238.447C194.483,234.077 196.462,229.774 199.068,225.537C201.675,221.299 204.571,217.459 207.757,214.017C210.943,210.574 214.129,207.826 217.314,205.774C220.5,203.721 223.348,202.695 225.858,202.695C227.982,202.695 229.671,203.49 230.926,205.079C231.795,206.27 232.23,207.992 232.23,210.243C232.23,213.156 231.433,216.499 229.84,220.273C228.248,224.047 226.003,227.324 223.107,230.105C221.273,231.826 219.125,233.25 216.663,234.375C214.201,235.501 211.619,236.063 208.916,236.063C208.047,236.063 207.154,235.997 206.237,235.865C205.319,235.732 204.426,235.534 203.558,235.269C202.882,236.328 202.085,238.017 201.168,240.334C200.251,242.651 199.479,245.2 198.851,247.981C198.224,250.761 197.91,253.41 197.91,255.926C198.007,259.368 198.706,261.785 200.01,263.175C201.313,264.566 202.882,265.261 204.716,265.261C208.385,265.261 211.932,263.639 215.36,260.394C218.787,257.15 221.9,253.145 224.7,248.378C227.499,243.611 229.865,239.043 231.795,234.673C232.085,234.143 232.326,233.846 232.519,233.779C232.712,233.713 232.857,233.68 232.954,233.68C233.243,233.68 233.509,233.879 233.75,234.276C233.992,234.673 234.016,235.203 233.823,235.865C232.568,238.646 230.951,241.956 228.972,245.796C226.992,249.636 224.676,253.31 222.021,256.819C219.366,260.328 216.397,263.208 213.115,265.459C211.86,266.386 210.484,267.048 208.988,267.446C207.492,267.843 206.019,268.041 204.571,268.041ZM207.612,233.283C212.15,233.283 216.277,231.661 219.993,228.417C223.71,225.172 226.389,221.233 228.03,216.599C228.513,215.539 228.827,214.546 228.972,213.619C229.116,212.692 229.189,211.964 229.189,211.434C229.189,209.183 228.272,208.058 226.437,208.058C225.279,208.058 224,208.455 222.6,209.25C221.2,210.044 219.969,210.971 218.907,212.03C217.073,213.884 215.166,216.168 213.187,218.883C211.208,221.597 209.446,224.246 207.902,226.828C206.357,229.41 205.199,231.429 204.426,232.886C204.909,233.018 205.44,233.117 206.019,233.183C206.599,233.25 207.13,233.283 207.612,233.283Z" style="fill:rgb(43,43,43);fill-rule:nonzero;"/>
        <path d="M245.263,268.24C243.332,268.24 241.618,267.446 240.122,265.857C238.625,264.268 237.877,262.017 237.877,259.103C237.877,255.793 238.529,252.218 239.832,248.378C241.136,244.538 242.559,241.062 244.104,237.95C245.649,234.839 246.662,232.819 247.145,231.892C248.883,228.714 250.5,225.437 251.996,222.061C253.493,218.684 254.241,215.937 254.241,213.818C254.241,211.832 253.613,210.574 252.358,210.044C251.296,209.514 250.186,208.952 249.028,208.356C247.869,207.76 247,207.396 246.421,207.263C246.131,207.926 245.456,209.481 244.394,211.931C243.332,214.381 242.101,217.161 240.701,220.273C239.301,223.385 237.974,226.397 236.719,229.31C235.464,232.223 234.498,234.408 233.823,235.865C233.243,236.792 232.761,237.255 232.375,237.255C231.988,237.255 231.723,236.99 231.578,236.461C231.433,235.931 231.506,235.335 231.795,234.673C234.692,228.45 237.25,222.623 239.47,217.194C241.691,211.766 243.139,208.323 243.814,206.866C242.849,205.939 242.077,204.35 241.498,202.099C240.918,199.848 240.629,197.531 240.629,195.148C240.629,192.499 241.015,190.116 241.787,187.997C242.559,185.879 243.863,184.819 245.697,184.819C246.952,184.819 247.821,185.647 248.304,187.302C248.786,188.957 249.028,190.844 249.028,192.963C249.028,194.817 248.883,196.604 248.593,198.326C248.304,200.047 248.062,201.239 247.869,201.901L246.855,205.079C248.014,205.211 249.752,205.476 252.069,205.873C254.386,206.27 256.799,206.734 259.309,207.263C260.757,207.528 261.94,208.257 262.857,209.448C263.774,210.64 264.233,212.229 264.233,214.215C264.233,216.201 263.75,218.585 262.784,221.366C261.819,224.146 260.178,227.324 257.861,230.899C256.702,232.753 255.303,235.203 253.661,238.248C252.02,241.294 250.476,244.24 249.028,247.087C247.58,249.934 246.518,252.152 245.842,253.741C244.587,256.521 243.959,259.037 243.959,261.288C243.959,263.804 244.973,265.062 247,265.062C249.221,265.062 251.586,263.903 254.096,261.586C256.606,259.269 259.068,256.389 261.481,252.946C263.895,249.503 266.043,246.094 267.925,242.717C269.808,239.341 271.183,236.659 272.052,234.673C272.438,233.746 272.969,233.283 273.645,233.283C274.128,233.283 274.369,233.614 274.369,234.276C274.369,234.938 274.273,235.468 274.08,235.865C273.114,237.851 271.545,240.83 269.373,244.803C267.201,248.775 264.619,252.781 261.626,256.819C258.633,260.858 255.303,264.003 251.634,266.254C250.476,266.916 249.317,267.412 248.159,267.743C247,268.074 246.035,268.24 245.263,268.24Z" style="fill:rgb(43,43,43);fill-rule:nonzero;"/>
        <path d="M306.951,269.034C304.634,269.034 302.655,268.008 301.014,265.956C299.373,263.903 298.552,260.957 298.552,257.117C298.552,252.483 299.518,247.683 301.448,242.717C303.379,237.752 305.648,232.819 308.254,227.92C310.861,223.021 313.13,218.519 315.06,214.414C316.122,211.898 316.653,209.846 316.653,208.257C316.653,206.403 316.026,205.476 314.771,205.476C313.805,205.476 312.357,206.303 310.427,207.959C308.496,209.614 306.034,212.428 303.041,216.4C300.145,220.372 297.37,224.775 294.715,229.608C292.06,234.441 289.647,239.241 287.474,244.008C285.302,248.775 283.42,253.145 281.827,257.117C280.234,261.09 279.051,264.135 278.279,266.254C277.603,266.651 276.759,266.916 275.745,267.048C274.731,267.181 273.693,267.247 272.631,267.247C270.218,267.247 268.625,267.048 267.853,266.651C269.108,264.268 270.773,260.957 272.849,256.72C274.924,252.483 277.121,247.881 279.437,242.916C281.754,237.95 283.878,233.283 285.809,228.913C286.871,226.397 288.029,223.683 289.284,220.77C290.54,217.857 291.601,215.109 292.47,212.527C293.339,209.945 293.774,207.992 293.774,206.668C293.774,205.343 293.387,204.681 292.615,204.681C292.132,204.681 291.505,205.012 290.733,205.674C289.96,206.337 289.236,207.197 288.56,208.257C287.112,210.243 285.254,213.321 282.985,217.492C280.717,221.663 277.748,227.788 274.08,235.865C273.79,236.527 273.307,236.858 272.631,236.858C271.859,236.858 271.666,236.13 272.052,234.673C273.79,230.833 275.576,226.96 277.41,223.054C279.244,219.148 281.079,215.473 282.913,212.03C284.844,208.588 286.654,205.84 288.343,203.788C290.033,201.735 291.843,200.709 293.774,200.709C295.608,200.709 297.008,201.57 297.973,203.291C298.938,205.012 299.421,206.999 299.421,209.25C299.421,211.898 298.987,214.811 298.118,217.989C298.504,217.459 298.866,216.93 299.204,216.4C299.542,215.87 299.904,215.341 300.29,214.811C303.669,209.912 306.975,206.303 310.209,203.986C313.443,201.669 316.267,200.51 318.681,200.51C320.515,200.51 322.084,201.172 323.387,202.497C324.69,203.821 325.342,205.608 325.342,207.859C325.342,210.508 324.666,213.686 323.315,217.393C321.963,221.101 320.443,224.61 318.753,227.92C317.064,231.23 315.688,233.812 314.626,235.666C313.95,236.99 312.647,239.407 310.716,242.916C308.785,246.425 307.144,250.033 305.793,253.741C305.117,255.33 304.658,256.753 304.417,258.011C304.176,259.269 304.055,260.428 304.055,261.487C304.055,264.532 305.069,266.055 307.096,266.055C309.316,266.055 312.068,264.268 315.35,260.692C317.957,257.912 320.636,254.303 323.387,249.868C326.138,245.432 328.769,240.367 331.279,234.673C331.569,234.011 331.858,233.647 332.148,233.581C332.438,233.514 332.631,233.481 332.727,233.481C333.403,233.481 333.596,234.276 333.306,235.865C330.507,241.956 327.586,247.583 324.545,252.748C321.504,257.912 318.439,262.017 315.35,265.062C312.55,267.71 309.751,269.034 306.951,269.034Z" style="fill:rgb(43,43,43);fill-rule:nonzero;"/>
        <path d="M358.793,193.956C357.441,193.956 356.403,193.36 355.679,192.168C354.955,190.977 354.593,189.586 354.593,187.997C354.593,185.349 355.269,183.23 356.621,181.641C357.972,180.052 359.42,179.258 360.965,179.258C362.316,179.258 363.378,179.821 364.151,180.946C364.923,182.072 365.309,183.495 365.309,185.217C365.309,187.732 364.633,189.818 363.282,191.473C361.93,193.128 360.434,193.956 358.793,193.956ZM334.755,268.637C332.148,268.637 329.952,267.545 328.166,265.36C326.38,263.175 325.487,260.03 325.487,255.926C325.487,253.807 325.776,251.357 326.356,248.577C327.031,245.663 327.828,242.982 328.745,240.532C329.662,238.083 330.483,236.063 331.207,234.474C331.931,232.886 332.293,232.091 332.293,232.091L346.484,203.291C347.063,202.629 347.787,202.199 348.656,202C349.525,201.801 350.442,201.702 351.408,201.702C352.759,201.702 353.918,201.868 354.883,202.199C355.848,202.53 356.235,203.026 356.041,203.688L341.705,232.886C341.416,233.415 340.474,235.236 338.882,238.348C337.289,241.459 335.768,244.869 334.32,248.577C332.486,253.211 331.569,257.183 331.569,260.494C331.569,264.069 332.775,265.857 335.189,265.857C335.961,265.857 336.903,265.625 338.013,265.161C339.123,264.698 340.402,263.937 341.85,262.877C347.932,258.243 354.159,248.841 360.531,234.673C360.82,234.011 361.086,233.647 361.327,233.581C361.568,233.514 361.737,233.481 361.834,233.481C362.316,233.481 362.63,233.713 362.775,234.177C362.92,234.64 362.847,235.203 362.558,235.865C359.082,243.148 355.679,249.437 352.349,254.734C349.018,260.03 345.519,263.87 341.85,266.254C339.437,267.843 337.071,268.637 334.755,268.637Z" style="fill:rgb(43,43,43);fill-rule:nonzero;"/>
        <path d="M401.511,233.481C401.801,233.481 402.042,233.68 402.236,234.077C402.429,234.474 402.429,235.07 402.236,235.865C397.698,245.796 392.533,252.847 386.741,257.018C380.949,261.189 375.204,264.003 369.509,265.459C367.192,266.254 364.778,266.651 362.268,266.651C358.986,266.651 355.897,265.79 353,264.069C350.104,262.348 348.029,259.501 346.774,255.528C346.194,253.542 345.905,251.556 345.905,249.57C345.905,246.657 346.46,244.108 347.57,241.923C348.68,239.738 349.863,238.182 351.118,237.255C351.89,236.593 352.735,236.163 353.652,235.964C354.569,235.766 355.51,235.666 356.476,235.666C357.731,235.666 358.841,235.865 359.806,236.262C360.096,235.6 360.965,233.647 362.413,230.403C363.861,227.159 365.647,223.319 367.771,218.883C369.895,214.447 372.115,210.243 374.432,206.27C376.942,202.033 379.356,198.524 381.673,195.743C383.99,192.963 385.679,191.44 386.741,191.175C387.031,191.043 387.32,190.977 387.61,190.977L388.334,190.977C389.396,190.977 390.192,191.308 390.723,191.97C391.254,192.632 391.52,193.426 391.52,194.353C391.52,195.28 391.158,196.207 390.434,197.134C389.71,198.061 388.672,198.524 387.32,198.524C385.776,198.524 384.231,199.087 382.686,200.212C381.142,201.338 380.225,202.629 379.935,204.086C379.645,205.277 379.5,206.601 379.5,208.058C379.5,210.441 379.814,212.825 380.442,215.208C381.069,217.592 381.673,219.975 382.252,222.359C382.831,224.742 383.386,227.192 383.917,229.708C384.448,232.223 384.714,234.938 384.714,237.851C384.714,240.499 384.424,243.214 383.845,245.994C382.783,251.556 380.804,256.058 377.908,259.501C381.383,257.912 385.1,255.263 389.058,251.556C393.016,247.848 396.733,242.221 400.208,234.673C400.498,234.011 400.763,233.647 401.005,233.581C401.246,233.514 401.415,233.481 401.511,233.481ZM360.531,264.069C361.786,264.069 363.089,263.804 364.44,263.274C365.792,262.745 367.095,261.884 368.35,260.692C370.088,259.236 371.536,256.919 372.694,253.741C373.853,250.563 374.794,247.087 375.518,243.313C376.242,239.539 376.773,235.931 377.111,232.488C377.449,229.046 377.618,226.331 377.618,224.345C377.618,221.564 377.449,218.783 377.111,216.003C376.773,213.222 376.653,210.508 376.749,207.859C374.625,211.832 372.236,216.268 369.581,221.167C366.926,226.066 364.344,231.495 361.834,237.454C362.992,238.381 363.982,239.473 364.802,240.731C365.623,241.989 366.178,243.942 366.468,246.59C366.564,247.65 366.347,248.808 365.816,250.066C365.285,251.324 364.296,251.953 362.847,251.953C361.882,251.953 361.399,251.556 361.399,250.761C361.399,250.099 361.689,249.503 362.268,248.974C363.234,247.914 363.716,246.723 363.716,245.399C363.716,244.604 363.572,243.81 363.282,243.015C362.606,241.294 361.665,240.036 360.458,239.241C359.251,238.447 357.972,238.05 356.621,238.05C354.69,238.05 353.049,238.844 351.697,240.433C350.539,241.757 349.718,243.181 349.235,244.703C348.753,246.226 348.511,247.782 348.511,249.371C348.511,251.887 348.994,254.237 349.959,256.422C350.925,258.607 352.083,260.229 353.435,261.288C355.559,263.142 357.924,264.069 360.531,264.069Z" style="fill:rgb(43,43,43);fill-rule:nonzero;"/>
        <path d="M441.189,233.481C441.479,233.481 441.72,233.68 441.913,234.077C442.106,234.474 442.106,235.07 441.913,235.865C437.376,245.796 432.211,252.847 426.419,257.018C420.626,261.189 414.882,264.003 409.186,265.459C406.869,266.254 404.456,266.651 401.946,266.651C398.664,266.651 395.574,265.79 392.678,264.069C389.782,262.348 387.706,259.501 386.451,255.528C385.872,253.542 385.582,251.556 385.582,249.57C385.582,246.657 386.138,244.108 387.248,241.923C388.358,239.738 389.541,238.182 390.796,237.255C391.568,236.593 392.413,236.163 393.33,235.964C394.247,235.766 395.188,235.666 396.154,235.666C397.409,235.666 398.519,235.865 399.484,236.262C399.774,235.6 400.643,233.647 402.091,230.403C403.539,227.159 405.325,223.319 407.449,218.883C409.572,214.447 411.793,210.243 414.11,206.27C416.62,202.033 419.033,198.524 421.35,195.743C423.667,192.963 425.357,191.44 426.419,191.175C426.708,191.043 426.998,190.977 427.287,190.977L428.012,190.977C429.073,190.977 429.87,191.308 430.401,191.97C430.932,192.632 431.197,193.426 431.197,194.353C431.197,195.28 430.835,196.207 430.111,197.134C429.387,198.061 428.349,198.524 426.998,198.524C425.453,198.524 423.909,199.087 422.364,200.212C420.819,201.338 419.902,202.629 419.613,204.086C419.323,205.277 419.178,206.601 419.178,208.058C419.178,210.441 419.492,212.825 420.119,215.208C420.747,217.592 421.35,219.975 421.93,222.359C422.509,224.742 423.064,227.192 423.595,229.708C424.126,232.223 424.391,234.938 424.391,237.851C424.391,240.499 424.102,243.214 423.522,245.994C422.46,251.556 420.481,256.058 417.585,259.501C421.061,257.912 424.777,255.263 428.736,251.556C432.694,247.848 436.41,242.221 439.886,234.673C440.175,234.011 440.441,233.647 440.682,233.581C440.924,233.514 441.093,233.481 441.189,233.481ZM400.208,264.069C401.463,264.069 402.766,263.804 404.118,263.274C405.47,262.745 406.773,261.884 408.028,260.692C409.766,259.236 411.214,256.919 412.372,253.741C413.531,250.563 414.472,247.087 415.196,243.313C415.92,239.539 416.451,235.931 416.789,232.488C417.127,229.046 417.296,226.331 417.296,224.345C417.296,221.564 417.127,218.783 416.789,216.003C416.451,213.222 416.33,210.508 416.427,207.859C414.303,211.832 411.914,216.268 409.259,221.167C406.604,226.066 404.021,231.495 401.511,237.454C402.67,238.381 403.659,239.473 404.48,240.731C405.301,241.989 405.856,243.942 406.145,246.59C406.242,247.65 406.025,248.808 405.494,250.066C404.963,251.324 403.973,251.953 402.525,251.953C401.56,251.953 401.077,251.556 401.077,250.761C401.077,250.099 401.367,249.503 401.946,248.974C402.911,247.914 403.394,246.723 403.394,245.399C403.394,244.604 403.249,243.81 402.96,243.015C402.284,241.294 401.343,240.036 400.136,239.241C398.929,238.447 397.65,238.05 396.298,238.05C394.368,238.05 392.726,238.844 391.375,240.433C390.216,241.757 389.396,243.181 388.913,244.703C388.43,246.226 388.189,247.782 388.189,249.371C388.189,251.887 388.672,254.237 389.637,256.422C390.603,258.607 391.761,260.229 393.113,261.288C395.236,263.142 397.602,264.069 400.208,264.069Z" style="fill:rgb(43,43,43);fill-rule:nonzero;"/>
        <path d="M444.665,267.446C441.961,267.446 439.886,266.022 438.438,263.175C436.99,260.328 436.266,256.654 436.266,252.152C436.266,247.252 437.231,241.559 439.162,235.07C440.224,231.495 441.817,227.821 443.94,224.047C446.064,220.273 448.526,216.764 451.326,213.52C454.125,210.276 457.142,207.628 460.376,205.575C463.61,203.523 466.917,202.497 470.296,202.497C472.902,202.497 474.688,203.423 475.654,205.277C476.619,207.131 477.102,209.382 477.102,212.03C477.102,214.546 476.812,217.128 476.233,219.777L484.342,202.894C485.018,202.232 486.514,201.901 488.831,201.901C490.569,201.901 492.234,202.166 493.827,202.695C495.42,203.225 495.879,204.019 495.203,205.079C494.431,206.403 493.103,208.422 491.221,211.137C489.338,213.851 487.311,217.062 485.139,220.77C482.967,224.477 480.915,228.383 478.984,232.488C478.019,234.739 476.595,238.05 474.712,242.419C472.83,246.789 471.358,250.96 470.296,254.932C469.716,257.316 469.427,259.236 469.427,260.692C469.427,263.473 470.296,264.863 472.033,264.863C472.999,264.863 474.302,264.367 475.943,263.374C477.584,262.381 479.177,261.023 480.722,259.302C483.811,255.859 486.514,251.721 488.831,246.888C491.148,242.055 493.224,237.785 495.058,234.077C495.155,233.945 495.275,233.812 495.42,233.68C495.565,233.548 495.83,233.481 496.217,233.481C496.603,233.481 496.892,233.713 497.085,234.177C497.278,234.64 497.182,235.203 496.796,235.865C494.093,241.426 491.438,246.623 488.831,251.457C486.225,256.29 483.57,260.163 480.867,263.076C478.164,265.989 475.219,267.446 472.033,267.446C469.523,267.446 467.52,266.419 466.024,264.367C464.528,262.314 463.779,259.501 463.779,255.926C463.779,254.337 463.9,252.681 464.141,250.96C464.383,249.239 464.696,247.65 465.083,246.193C463.538,248.974 461.631,252.019 459.363,255.33C457.094,258.64 454.705,261.487 452.195,263.87C449.685,266.254 447.175,267.446 444.665,267.446ZM445.968,263.672C447.899,263.672 449.95,262.612 452.122,260.494C454.294,258.375 456.491,255.628 458.711,252.251C460.931,248.874 462.959,245.266 464.793,241.426C466.338,238.248 467.858,234.872 469.354,231.297C470.851,227.721 472.106,224.212 473.12,220.77C474.133,217.327 474.64,214.215 474.64,211.434C474.64,207.197 473.53,205.079 471.309,205.079C469.765,205.079 467.979,206.006 465.951,207.859C463.924,209.713 461.873,212.097 459.797,215.01C457.721,217.923 455.791,221.068 454.005,224.444C452.219,227.821 450.795,231.098 449.733,234.276C449.443,235.07 448.743,236.99 447.633,240.036C446.523,243.081 445.461,246.392 444.447,249.967C443.434,253.542 442.927,256.654 442.927,259.302C442.927,262.215 443.94,263.672 445.968,263.672Z" style="fill:rgb(43,43,43);fill-rule:nonzero;"/>
        <path d="M470.585,343.517C468.075,343.517 466,342.524 464.359,340.538C462.717,338.552 461.897,335.903 461.897,332.593C461.897,331.004 462.138,329.25 462.621,327.33C463.104,325.41 463.876,323.457 464.938,321.47C466.869,317.763 469.692,313.625 473.409,309.057C477.126,304.488 481.012,300.152 485.066,296.047C489.507,291.412 493.779,287.341 497.882,283.832C501.985,280.323 505.46,277.542 508.308,275.49C511.156,273.437 512.821,272.279 513.304,272.014C513.497,271.749 513.859,270.657 514.39,268.737C514.921,266.817 515.524,264.665 516.2,262.281C516.876,259.898 517.479,257.68 518.01,255.628C518.541,253.575 518.903,252.218 519.096,251.556L520.4,246.988C518.662,250.033 516.659,253.112 514.39,256.223C512.121,259.335 509.708,261.95 507.15,264.069C504.591,266.188 501.961,267.247 499.258,267.247C495.975,267.247 493.731,265.823 492.524,262.977C491.317,260.13 490.714,256.985 490.714,253.542C490.714,251.821 490.834,250.132 491.076,248.477C491.317,246.822 491.583,245.332 491.872,244.008C492.741,240.168 494.213,235.931 496.289,231.297C498.365,226.662 500.899,222.193 503.891,217.89C506.884,213.586 510.191,210.044 513.811,207.263C517.431,204.483 521.172,203.092 525.034,203.092C527.93,203.092 529.885,204.086 530.898,206.072C531.912,208.058 532.419,210.309 532.419,212.825C532.419,213.354 532.395,213.884 532.346,214.414C532.298,214.943 532.226,215.539 532.129,216.201C533.191,213.95 534.712,211.07 536.691,207.561C538.67,204.052 540.576,201.239 542.411,199.12C543.762,197.663 545.114,196.935 546.465,196.935C547.527,196.935 548.42,197.299 549.144,198.028C549.868,198.756 550.23,199.583 550.23,200.51C550.23,201.437 549.748,202.298 548.782,203.092C545.789,205.211 542.99,207.561 540.383,210.143C537.777,212.726 535.46,215.87 533.432,219.578C531.888,222.491 530.536,226.066 529.378,230.303C528.219,234.541 527.206,238.943 526.337,243.512C525.468,248.08 524.647,252.45 523.875,256.621C523.103,260.792 522.33,264.334 521.558,267.247C523.103,265.923 525.227,263.672 527.93,260.494C530.633,257.316 533.457,253.476 536.401,248.974C539.345,244.472 541.88,239.705 544.004,234.673C544.39,234.011 544.679,233.614 544.872,233.481C545.065,233.349 545.259,233.283 545.452,233.283C545.741,233.283 546.007,233.448 546.248,233.779C546.489,234.11 546.562,234.474 546.465,234.872C543.762,241.36 540.673,247.252 537.197,252.549C533.722,257.846 530.488,262.149 527.495,265.459C524.503,268.77 522.33,270.822 520.979,271.617C518.952,279.561 516.273,288.003 512.942,296.941C509.611,305.879 505.34,314.32 500.126,322.265C498.196,325.178 495.661,328.29 492.524,331.6C489.386,334.91 485.935,337.724 482.17,340.041C478.405,342.359 474.543,343.517 470.585,343.517ZM501.43,263.672C503.65,263.672 505.991,262.348 508.453,259.699C510.915,257.051 513.376,253.674 515.838,249.57C518.3,245.465 520.544,241.161 522.572,236.659C524.599,232.157 526.264,227.986 527.568,224.146C528.871,220.306 529.619,217.393 529.812,215.407C529.909,214.745 529.981,214.05 530.029,213.321C530.078,212.593 530.102,211.964 530.102,211.434C530.102,207.197 528.992,205.079 526.771,205.079C525.227,205.079 523.441,206.006 521.413,207.859C519.386,209.713 517.335,212.097 515.259,215.01C513.183,217.923 511.253,221.068 509.467,224.444C507.681,227.821 506.257,231.098 505.195,234.276C504.905,235.07 504.205,236.99 503.095,240.036C501.985,243.081 500.923,246.392 499.909,249.967C498.896,253.542 498.389,256.654 498.389,259.302C498.389,262.215 499.402,263.672 501.43,263.672ZM470.151,340.339C472.371,340.339 475.002,338.817 478.043,335.771C481.084,332.726 484.27,328.753 487.6,323.854C490.931,318.954 494.189,313.658 497.375,307.964C500.561,302.27 503.457,296.709 506.064,291.28C508.67,285.851 510.746,281.084 512.29,276.979C510.939,277.906 508.863,279.528 506.064,281.846C503.264,284.163 500.078,286.943 496.506,290.188C492.934,293.432 489.338,296.974 485.718,300.814C482.098,304.654 478.719,308.527 475.581,312.433C472.444,316.339 469.934,320.08 468.051,323.655C466.169,327.23 465.227,330.474 465.227,333.388C465.227,334.712 465.517,335.97 466.096,337.161C467.062,339.28 468.413,340.339 470.151,340.339Z" style="fill:rgb(43,43,43);fill-rule:nonzero;"/>
        <path d="M553.995,268.041C551.485,268.041 549.12,267.214 546.9,265.559C544.679,263.903 543.038,261.222 541.976,257.514C541.3,255.131 540.963,252.417 540.963,249.371C540.963,245.663 541.493,242.022 542.555,238.447C543.907,234.077 545.886,229.774 548.493,225.537C551.099,221.299 553.995,217.459 557.181,214.017C560.367,210.574 563.553,207.826 566.739,205.774C569.924,203.721 572.772,202.695 575.282,202.695C577.406,202.695 579.096,203.49 580.351,205.079C581.219,206.27 581.654,207.992 581.654,210.243C581.654,213.156 580.857,216.499 579.264,220.273C577.672,224.047 575.427,227.324 572.531,230.105C570.697,231.826 568.549,233.25 566.087,234.375C563.625,235.501 561.043,236.063 558.34,236.063C557.471,236.063 556.578,235.997 555.661,235.865C554.744,235.732 553.851,235.534 552.982,235.269C552.306,236.328 551.509,238.017 550.592,240.334C549.675,242.651 548.903,245.2 548.275,247.981C547.648,250.761 547.334,253.41 547.334,255.926C547.431,259.368 548.131,261.785 549.434,263.175C550.737,264.566 552.306,265.261 554.14,265.261C557.809,265.261 561.356,263.639 564.784,260.394C568.211,257.15 571.324,253.145 574.124,248.378C576.923,243.611 579.289,239.043 581.219,234.673C581.509,234.143 581.75,233.846 581.943,233.779C582.137,233.713 582.281,233.68 582.378,233.68C582.668,233.68 582.933,233.879 583.174,234.276C583.416,234.673 583.44,235.203 583.247,235.865C581.992,238.646 580.375,241.956 578.396,245.796C576.417,249.636 574.1,253.31 571.445,256.819C568.79,260.328 565.821,263.208 562.539,265.459C561.284,266.386 559.908,267.048 558.412,267.446C556.916,267.843 555.443,268.041 553.995,268.041ZM557.036,233.283C561.574,233.283 565.701,231.661 569.417,228.417C573.134,225.172 575.813,221.233 577.454,216.599C577.937,215.539 578.251,214.546 578.396,213.619C578.54,212.692 578.613,211.964 578.613,211.434C578.613,209.183 577.696,208.058 575.861,208.058C574.703,208.058 573.424,208.455 572.024,209.25C570.624,210.044 569.393,210.971 568.331,212.03C566.497,213.884 564.591,216.168 562.611,218.883C560.632,221.597 558.871,224.246 557.326,226.828C555.781,229.41 554.623,231.429 553.851,232.886C554.333,233.018 554.864,233.117 555.443,233.183C556.023,233.25 556.554,233.283 557.036,233.283Z" style="fill:rgb(43,43,43);fill-rule:nonzero;"/>
    </g>
</svg>
