<?xml version="1.0" encoding="UTF-8" standalone="no"?>
<!DOCTYPE svg PUBLIC "-//W3C//DTD SVG 1.1//EN" "http://www.w3.org/Graphics/SVG/1.1/DTD/svg11.dtd">
<svg width="100%" height="100%" viewBox="0 0 1024 1024" version="1.1" xmlns="http://www.w3.org/2000/svg" xmlns:xlink="http://www.w3.org/1999/xlink" xml:space="preserve" xmlns:serif="http://www.serif.com/" style="fill-rule:evenodd;clip-rule:evenodd;stroke-linejoin:round;stroke-miterlimit:2;">
    <g transform="matrix(1.91941,0,0,1.91941,512,512)">
        <g transform="matrix(1,0,0,1,-256,-256)">
            <path d="M460.889,422.957L28.661,422.957C18.98,422.957 11.131,415.108 11.131,405.427L11.131,110.28C11.131,98.551 20.639,89.043 32.368,89.043L418.416,89.043C430.145,89.043 439.653,98.551 439.653,110.28L439.653,401.72C439.652,413.451 449.158,422.957 460.889,422.957Z" style="fill:white;fill-rule:nonzero;"/>
            <path d="M500.87,143.672L500.87,401.72C500.87,413.452 491.365,422.957 479.633,422.957L460.889,422.957C449.158,422.957 439.652,413.452 439.652,401.72L439.652,122.435L479.633,122.435C491.364,122.435 500.87,131.94 500.87,143.672Z" style="fill:rgb(199,215,230);fill-rule:nonzero;"/>
            <rect x="133.61" y="137.461" width="189.217" height="47.861" style="fill:rgb(79,145,219);"/>
            <rect x="71.001" y="274.643" width="99.851" height="99.617" style="fill:rgb(253,101,125);"/>
            <g>
                <path d="M479.633,111.304L450.783,111.304L450.783,110.28C450.783,92.432 436.263,77.913 418.416,77.913L32.367,77.913C14.52,77.913 0,92.433 0,110.28L0,405.426C0,421.23 12.857,434.087 28.661,434.087L479.633,434.087C497.481,434.087 512,419.567 512,401.72L512,143.672C512,125.824 497.48,111.304 479.633,111.304ZM28.661,411.826C25.133,411.826 22.261,408.954 22.261,405.426L22.261,110.28C22.261,104.707 26.794,100.174 32.367,100.174L418.415,100.174C423.988,100.174 428.521,104.707 428.521,110.28L428.521,401.72C428.521,405.247 429.089,408.645 430.136,411.826L28.661,411.826ZM489.739,401.72C489.739,407.293 485.206,411.826 479.633,411.826L460.889,411.826C455.316,411.826 450.783,407.293 450.783,401.72L450.783,133.565L479.633,133.565C485.206,133.565 489.739,138.098 489.739,143.671L489.739,401.72Z" style="fill:rgb(35,31,32);fill-rule:nonzero;"/>
                <path d="M385.436,218.713L71.001,218.713C64.854,218.713 59.871,223.696 59.871,229.843C59.871,235.99 64.854,240.973 71.001,240.973L385.436,240.973C391.583,240.973 396.566,235.99 396.566,229.843C396.566,223.696 391.583,218.713 385.436,218.713Z" style="fill:rgb(35,31,32);fill-rule:nonzero;"/>
                <path d="M133.61,196.452L322.827,196.452C328.974,196.452 333.957,191.469 333.957,185.322L333.957,137.461C333.957,131.314 328.974,126.331 322.827,126.331L133.61,126.331C127.463,126.331 122.48,131.314 122.48,137.461L122.48,185.322C122.479,191.469 127.462,196.452 133.61,196.452ZM144.74,148.591L311.696,148.591L311.696,174.191L144.74,174.191L144.74,148.591Z" style="fill:rgb(35,31,32);fill-rule:nonzero;"/>
                <path d="M170.852,263.513L71.001,263.513C64.854,263.513 59.871,268.496 59.871,274.643L59.871,374.26C59.871,380.407 64.854,385.39 71.001,385.39L170.852,385.39C176.999,385.39 181.982,380.407 181.982,374.26L181.982,274.643C181.983,268.496 176.999,263.513 170.852,263.513ZM159.722,363.13L82.132,363.13L82.132,285.773L159.722,285.773L159.722,363.13Z" style="fill:rgb(35,31,32);fill-rule:nonzero;"/>
                <path d="M385.436,268.8L267.13,268.8C260.983,268.8 256,273.783 256,279.93C256,286.077 260.983,291.06 267.13,291.06L385.435,291.06C391.582,291.06 396.565,286.077 396.565,279.93C396.565,273.783 391.583,268.8 385.436,268.8Z" style="fill:rgb(35,31,32);fill-rule:nonzero;"/>
                <path d="M223.722,291.061L226.783,291.061C232.93,291.061 237.913,286.078 237.913,279.931C237.913,273.784 232.93,268.801 226.783,268.801L223.722,268.801C217.575,268.801 212.592,273.784 212.592,279.931C212.592,286.078 217.574,291.061 223.722,291.061Z" style="fill:rgb(35,31,32);fill-rule:nonzero;"/>
                <path d="M385.436,313.322L384.743,313.322C378.596,313.322 373.613,318.305 373.613,324.452C373.613,330.599 378.596,335.582 384.743,335.582L385.436,335.582C391.583,335.582 396.566,330.599 396.566,324.452C396.566,318.305 391.583,313.322 385.436,313.322Z" style="fill:rgb(35,31,32);fill-rule:nonzero;"/>
                <path d="M223.722,335.583L347.27,335.583C353.417,335.583 358.4,330.6 358.4,324.453C358.4,318.306 353.417,313.323 347.27,313.323L223.722,313.323C217.575,313.323 212.592,318.306 212.592,324.453C212.591,330.6 217.574,335.583 223.722,335.583Z" style="fill:rgb(35,31,32);fill-rule:nonzero;"/>
                <path d="M385.436,357.843L223.722,357.843C217.575,357.843 212.592,362.826 212.592,368.973C212.592,375.12 217.575,380.103 223.722,380.103L385.436,380.103C391.583,380.103 396.566,375.12 396.566,368.973C396.566,362.827 391.583,357.843 385.436,357.843Z" style="fill:rgb(35,31,32);fill-rule:nonzero;"/>
            </g>
        </g>
    </g>
</svg>
