<?xml version="1.0" encoding="UTF-8" standalone="no"?>
<!DOCTYPE svg PUBLIC "-//W3C//DTD SVG 1.1//EN" "http://www.w3.org/Graphics/SVG/1.1/DTD/svg11.dtd">
<svg width="100%" height="100%" viewBox="0 0 1024 1024" version="1.1" xmlns="http://www.w3.org/2000/svg" xmlns:xlink="http://www.w3.org/1999/xlink" xml:space="preserve" xmlns:serif="http://www.serif.com/" style="fill-rule:evenodd;clip-rule:evenodd;stroke-linejoin:round;stroke-miterlimit:2;">
    <g transform="matrix(1.65018,0,0,1.9628,-133.991,-232.699)">
        <rect x="81.198" y="118.554" width="620.538" height="521.703" style="fill:rgb(71,135,167);"/>
    </g>
    <g transform="matrix(0.206083,0,0,0.206083,512,513.763)">
        <g transform="matrix(1,0,0,1,-1666.67,-1666.67)">
            <g transform="matrix(6.51042,0,0,6.51042,0,0)">
                <g>
                    <circle cx="256" cy="114.526" r="114.526" style="fill:url(#_Linear1);"/>
                </g>
            </g>
            <g transform="matrix(6.51042,0,0,6.51042,0,0)">
                <g>
                    <path d="M256,256C144.381,256 53.895,346.487 53.895,458.105C53.895,487.87 78.025,512 107.79,512L404.211,512C433.976,512 458.106,487.87 458.106,458.105C458.105,346.487 367.619,256 256,256Z" style="fill:url(#_Linear2);fill-rule:nonzero;"/>
                </g>
            </g>
        </g>
    </g>
    <defs>
        <linearGradient id="_Linear1" x1="0" y1="0" x2="1" y2="0" gradientUnits="userSpaceOnUse" gradientTransform="matrix(229.052,0,0,229.052,141.474,114.526)"><stop offset="0" style="stop-color:white;stop-opacity:0.75"/><stop offset="1" style="stop-color:white;stop-opacity:0.95"/></linearGradient>
        <linearGradient id="_Linear2" x1="0" y1="0" x2="1" y2="0" gradientUnits="userSpaceOnUse" gradientTransform="matrix(404.211,0,0,256,53.895,384)"><stop offset="0" style="stop-color:white;stop-opacity:0.75"/><stop offset="1" style="stop-color:white;stop-opacity:0.95"/></linearGradient>
    </defs>
</svg>
